FFmpeg version SVN-r25716, Copyright (c) 2000-2010 the FFmpeg developers  built on Nov 10 2010 12:23:18 with gcc 4.1.2 20080704 (Red Hat 4.1.2-48)  configuration: --enable-libmp3lame --enable-shared --disable-mmx --arch=x86_64  libavutil     50.33. 0 / 50.33. 0  libavcore      0.12. 1 /  0.12. 1  libavcodec    52.94. 4 / 52.94. 4  libavformat   52.84. 0 / 52.84. 0  libavdevice   52. 2. 2 / 52. 2. 2  libavfilter    1.59. 0 /  1.59. 0  libswscale     0.12. 0 /  0.12. 0Seems stream 0 codec frame rate differs from container frame rate: 5000.00 (5000/1) -> 25.00 (25/1)Input #0, mov,mp4,m4a,3gp,3g2,mj2, from '/RAID10/data/converted_video_files/25541.mov':  Metadata:    major_brand     : qt      minor_version   : 537199360    compatible_brands: qt    Duration: 00:00:13.40, start: 0.000000, bitrate: 686 kb/s    Stream #0.0(eng): Video: h264, yuv420p, 784x576, 682 kb/s, 25 fps, 25 tbr, 2500 tbn, 5k tbc[buffer @ 0x437f6e0] w:784 h:576 pixfmt:yuv420pOutput #0, flv, to '/RAID10/data/converted_video_files/25541.flv':  Metadata:    encoder         : Lavf52.84.0    Stream #0.0(eng): Video: flv, yuv420p, 784x576, q=2-31, 600 kb/s, 1k tbn, 24 tbcStream mapping:  Stream #0.0 -> #0.0Press [q] to stop encodingframe=   22 fps=  0 q=2.0 size=     109kB time=0.92 bitrate= 969.3kbits/s dup=0 drop=1    frame=   73 fps= 70 q=1.6 size=     423kB time=3.04 bitrate=1137.9kbits/s dup=0 drop=3    frame=  118 fps= 77 q=3.3 size=     674kB time=4.92 bitrate=1123.0kbits/s dup=0 drop=5    frame=  174 fps= 85 q=11.2 size=     903kB time=7.25 bitrate=1019.9kbits/s dup=0 drop=7    frame=  229 fps= 90 q=5.4 size=    1080kB time=9.54 bitrate= 927.3kbits/s dup=0 drop=9    frame=  286 fps= 87 q=5.8 size=    1233kB time=11.92 bitrate= 847.6kbits/s dup=0 drop=12    frame=  310 fps= 87 q=5.1 size=    1300kB time=12.92 bitrate= 824.1kbits/s dup=0 drop=13    frame=  322 fps= 87 q=3.8 Lsize=    1335kB time=13.42 bitrate= 815.1kbits/s dup=0 drop=13    video:1330kB audio:0kB global headers:0kB muxing overhead 0.393803%